# xmcd
#
# Track frame offsets:
#	150
#	17670
#	34143
#	54147
#	68103
#	87237
#	99847
#	119049
#	140320
#	158781
#	171067
#	184862
#	209403
#	230279
#	250450
#	268149
#	286318
#	306726
#
# Disc length: 4355 seconds
#
# Revision: 2
# Processed by: cddbd v1.5.1PL0 Copyright (c) Steve Scherf et al.
# Submitted via: audiograbber 1.82.02
#
DISCID=01110112
DTITLE=Various Artist - Oasis Blues Volume 3 - Disc 1
DYEAR=1900
DGENRE=Blues
TTITLE0=Alex Maryol - Keep On Movin'
TTITLE1=Roosevelt Dean - Good Mornin World
TTITLE2=Robert Hill - Slide On Rye
TTITLE3=Jeff Jolly Band - Talk To Me
TTITLE4=Too Much Fun - Brand New Lover
TTITLE5=Big Fun - Scuffle Shuffle
TTITLE6=David Hamburger - When You Get To Statesville
TTITLE7=Dan Tyack and Friends - One More Midnight
TTITLE8=Catfish Keith - Pony Run
TTITLE9=Malkum and Chris - I Love The Way You Everything
TTITLE10=Warner Williams and Jay Summerour - Good Mornin' Little School Girl
TTITLE11=Alice Stuart - Wondering
TTITLE12=Joan Gavornik - Ain't That Peculiar
TTITLE13=Dave Sherman and The Nightcrawlers - It's Just Not Me
TTITLE14=The Providers - Relent
TTITLE15=Peter Parcek - Tears Like Diamonds
TTITLE16=Woody and The Woodpeckers - Winin' Boy Blues
TTITLE17=Arbor Avenue Station - Just Memories
EXTD=
EXTT0=
EXTT1=
EXTT2=
EXTT3=
EXTT4=
EXTT5=
EXTT6=
EXTT7=
EXTT8=
EXTT9=
EXTT10=
EXTT11=
EXTT12=
EXTT13=
EXTT14=
EXTT15=
EXTT16=
EXTT17=
PLAYORDER=
